<svg width="809" height="567" viewBox="0 0 809 567" fill="none" xmlns="http://www.w3.org/2000/svg">
<path d="M312.054 182.24H315.114C320.78 182.24 325.654 180.2 329.734 176.12C333.814 172.04 335.854 167.167 335.854 161.5V26.52C335.854 20.6267 333.814 15.64 329.734 11.56C325.654 7.48001 320.78 5.44001 315.114 5.44001H312.054V0C331.094 0 357.954 0 392.634 0C427.54 0 451.114 0 463.354 0C468.114 0 471.06 2.26667 472.194 6.80001L480.694 43.86H475.594L467.094 28.9C461.427 18.9267 456.1 12.58 451.114 9.86001C446.354 6.91335 438.987 5.44001 429.014 5.44001H399.774C394.107 5.44001 389.12 7.48001 384.814 11.56C380.734 15.64 378.694 20.6267 378.694 26.52V101.32H425.614C431.28 101.32 435.36 99.5067 437.854 95.88C440.574 92.0267 441.367 87.4933 440.234 82.28L437.514 69.7H442.954L460.974 131.58H455.534L450.094 120.7C445.334 111.407 437.854 106.76 427.654 106.76H378.694V161.5C378.694 167.167 380.734 172.04 384.814 176.12C389.12 180.2 394.107 182.24 399.774 182.24C404.08 182.24 410.54 182.24 419.154 182.24C427.767 182.24 434.227 182.24 438.534 182.24C448.507 182.24 455.874 180.88 460.634 178.16C465.394 175.44 470.72 168.98 476.614 158.78L485.114 143.82H490.214L481.374 180.88C480.24 185.64 477.407 188.02 472.874 188.02C415.754 188.02 362.147 188.02 312.054 188.02V182.24ZM101.934 232.56H104.994C110.66 232.56 115.534 230.52 119.614 226.44C123.694 222.36 125.734 217.373 125.734 211.48V26.52C125.734 20.6267 123.694 15.64 119.614 11.56C115.534 7.48001 110.66 5.44001 104.994 5.44001H101.934V0H197.474V5.44001H194.414C188.52 5.44001 183.534 7.48001 179.454 11.56C175.374 15.64 173.334 20.6267 173.334 26.52V121.04L255.274 13.26C256.634 11.6733 256.86 9.97333 255.954 8.16C255.047 6.34667 253.574 5.44001 251.534 5.44001H242.694V0H285.194V5.44001H280.774C272.84 5.44001 266.04 9.18001 260.374 16.66L178.774 124.1C190.787 121.153 202.914 120.36 215.154 121.72C227.394 122.853 239.18 126.707 250.514 133.28C258.22 137.813 266.38 144.5 274.994 153.34C283.607 162.18 292.674 172.153 302.194 183.26C311.94 194.14 320.327 202.753 327.354 209.1C342.314 222.247 359.314 230.747 378.354 234.6C397.62 238.227 416.547 237.773 435.134 233.24C453.947 228.48 471.627 220.32 488.174 208.76L491.574 211.82C472.76 229.047 450.32 240.833 424.254 247.18C398.414 253.753 374.5 255.34 352.514 251.94C341.18 250.127 330.527 247.18 320.554 243.1C310.58 239.02 301.287 233.807 292.674 227.46C284.287 220.887 277.034 214.653 270.914 208.76C264.794 202.64 257.994 195.273 250.514 186.66C248.247 183.94 244.394 179.293 238.954 172.72C233.514 166.147 229.774 161.727 227.734 159.46C225.694 157.193 222.294 153.907 217.534 149.6C212.774 145.293 208.58 142.347 204.954 140.76C201.327 139.173 196.794 137.587 191.354 136C185.914 134.413 179.907 133.62 173.334 133.62V211.48C173.334 217.373 175.374 222.36 179.454 226.44C183.534 230.52 188.52 232.56 194.414 232.56H197.474V238H101.934V232.56Z" fill="white"/>
<path d="M525.672 22.1C523.632 16.8867 520.458 12.8067 516.152 9.86001C512.072 6.91335 507.312 5.44001 501.872 5.44001H499.832V0H529.752C552.645 0 568.965 13.0333 578.712 39.1L643.312 211.48L678.332 90.78C681.732 80.1267 683.205 69.7 682.752 59.5C682.299 49.0733 681.052 40.6867 679.012 34.34C677.199 27.9933 675.272 21.5333 673.232 14.96C671.192 8.38667 670.172 3.4 670.172 0H709.952C703.832 21.5333 693.859 55.9867 680.032 103.36C666.432 150.507 656.005 186.547 648.752 211.48C647.165 216.92 648.752 221.793 653.512 226.1C658.272 230.407 663.599 232.56 669.492 232.56H672.552V238H630.052C614.185 238 602.512 227.913 595.032 207.74C592.085 199.807 585.852 183.373 576.332 158.44C567.039 133.507 550.152 88.06 525.672 22.1Z" fill="white"/>
<path d="M106.08 414.28H71.4V509.48C71.4 515.373 73.44 520.36 77.52 524.44C81.6 528.52 86.5867 530.56 92.48 530.56H107.44C115.147 530.56 122.06 528.407 128.18 524.1C134.527 519.793 139.4 514.24 142.8 507.44C146.427 500.64 149.147 493.16 150.96 485C152.773 476.613 153 468.34 151.64 460.18C150.28 451.793 147.9 444.2 144.5 437.4C141.327 430.6 136.34 425.047 129.54 420.74C122.967 416.433 115.147 414.28 106.08 414.28ZM95.54 303.44H92.48C86.5867 303.44 81.6 305.48 77.52 309.56C73.44 313.64 71.4 318.627 71.4 324.52V408.84H95.54C104.607 408.84 112.653 406.913 119.68 403.06C126.933 399.207 132.26 394.22 135.66 388.1C139.287 381.753 141.78 374.84 143.14 367.36C144.727 359.88 144.5 352.4 142.46 344.92C140.647 337.44 137.927 330.64 134.3 324.52C130.673 318.173 125.347 313.073 118.32 309.22C111.52 305.367 103.927 303.44 95.54 303.44ZM0 536V530.56H3.06C8.72667 530.56 13.6 528.52 17.68 524.44C21.76 520.36 23.8 515.373 23.8 509.48V324.52C23.8 318.627 21.76 313.64 17.68 309.56C13.6 305.48 8.72667 303.44 3.06 303.44H0V298H110.84C123.76 298 135.093 300.493 144.84 305.48C154.587 310.24 161.84 316.473 166.6 324.18C171.587 331.66 174.647 340.047 175.78 349.34C176.913 358.407 175.893 367.133 172.72 375.52C169.773 383.68 164.447 391.16 156.74 397.96C149.033 404.533 139.74 409.067 128.86 411.56C153.793 412.693 171.587 421.987 182.24 439.44C188.36 449.64 191.42 460.633 191.42 472.42C191.42 484.207 188.36 495.087 182.24 505.06C176.347 515.033 168.187 522.74 157.76 528.18C147.56 533.393 136.453 536 124.44 536H0Z" fill="white"/>
<path d="M541.083 346.96C551.283 363.507 556.383 381.64 556.383 401.36C556.383 420.853 551.283 438.987 541.083 455.76C530.883 472.307 516.943 485.453 499.263 495.2C481.81 504.72 462.77 509.48 442.143 509.48C421.517 509.48 402.363 504.72 384.683 495.2C367.23 485.453 353.403 472.307 343.203 455.76C333.003 438.987 327.903 420.853 327.903 401.36C327.903 381.64 333.003 363.507 343.203 346.96C353.403 330.187 367.23 317.04 384.683 307.52C402.363 297.773 421.517 292.9 442.143 292.9C462.77 292.9 481.81 297.773 499.263 307.52C516.943 317.04 530.883 330.187 541.083 346.96ZM206.863 530.56H209.923C215.59 530.56 220.463 528.52 224.543 524.44C228.623 520.36 230.663 515.373 230.663 509.48V324.52C230.663 318.627 228.623 313.64 224.543 309.56C220.463 305.48 215.59 303.44 209.923 303.44H206.863V298H302.403V303.44H299.343C293.45 303.44 288.463 305.48 284.383 309.56C280.303 313.64 278.263 318.627 278.263 324.52V509.48C278.263 515.373 280.303 520.36 284.383 524.44C288.463 528.52 293.45 530.56 299.343 530.56C319.97 530.56 340.37 531.24 360.543 532.6C380.943 533.96 396.923 535.32 408.483 536.68C420.043 538.267 431.717 539.287 443.503 539.74C455.517 540.42 465.49 539.967 473.423 538.38C481.357 537.02 489.743 533.96 498.583 529.2C507.423 524.213 516.717 517.3 526.463 508.46L529.523 511.18C517.283 525.913 505.497 537.587 494.163 546.2C483.057 554.813 472.403 560.367 462.203 562.86C452.23 565.58 442.483 566.6 432.963 565.92C423.443 565.467 413.13 563.54 402.023 560.14C391.143 556.74 380.49 553.227 370.063 549.6C359.637 546.2 347.17 543.027 332.663 540.08C318.157 537.36 303.763 536 289.483 536C279.283 536 265.457 536 248.003 536C230.777 536 217.063 536 206.863 536V530.56ZM393.523 327.92C380.15 348.093 373.463 372.46 373.463 401.02C373.463 429.58 380.15 454.06 393.523 474.46C407.123 494.633 423.33 504.72 442.143 504.72C461.183 504.72 477.39 494.633 490.763 474.46C504.137 454.06 510.823 429.58 510.823 401.02C510.823 372.46 504.137 348.093 490.763 327.92C477.39 307.52 461.183 297.32 442.143 297.32C423.33 297.32 407.123 307.52 393.523 327.92Z" fill="white"/>
<path d="M736.53 520.7V446.24C736.53 440.347 734.49 435.36 730.41 431.28C726.33 427.2 721.457 425.16 715.79 425.16H692.67V419.72H808.27V425.16H805.21C799.317 425.16 794.33 427.2 790.25 431.28C786.17 435.36 784.13 440.347 784.13 446.24V509.48C784.13 515.373 786.17 520.36 790.25 524.44C794.33 528.52 799.317 530.56 805.21 530.56H808.27V536H749.79L737.89 528.52C726.33 533.507 714.317 536 701.85 536C685.077 536 669.437 533.507 654.93 528.52C640.424 523.307 627.617 515.827 616.51 506.08C605.63 496.107 597.017 483.3 590.67 467.66C584.55 452.02 581.49 434.34 581.49 414.62C581.49 394.9 584.55 377.447 590.67 362.26C597.017 347.073 605.744 334.947 616.85 325.88C627.957 316.587 640.65 309.673 654.93 305.14C669.21 300.38 684.85 298 701.85 298C725.877 298 746.39 301.74 763.39 309.22C765.43 310.127 767.47 309.9 769.51 308.54C771.55 307.18 772.57 305.367 772.57 303.1V298H777.33V368.72H772.57C767.357 347.867 758.29 331.773 745.37 320.44C732.45 309.107 717.944 303.44 701.85 303.44C680.77 303.44 663.43 313.073 649.83 332.34C636.23 351.607 629.43 379.033 629.43 414.62C629.43 449.98 636.457 477.633 650.51 497.58C664.79 517.3 682.47 527.16 703.55 527.16C715.337 527.16 726.33 525.007 736.53 520.7Z" fill="white"/>
</svg>
